<?xml version="1.0" encoding="UTF-8" standalone="no" ?>
<!DOCTYPE svg PUBLIC "-//W3C//DTD SVG 1.1//EN" "http://www.w3.org/Graphics/SVG/1.1/DTD/svg11.dtd">
<svg xmlns="http://www.w3.org/2000/svg" xmlns:xlink="http://www.w3.org/1999/xlink" version="1.1" width="800" height="800" viewBox="0 0 800 800" xml:space="preserve">
<desc>Created with Fabric.js 5.3.0</desc>
<defs>
</defs>
<g transform="matrix(33.3333333333 0 0 33.3333333333 400 400)" id="FcvytclkarNd6icODV7cn"  >
<path style="stroke: rgb(0,0,0); stroke-width: 1.5; stroke-dasharray: none; stroke-linecap: round; stroke-dashoffset: 0; stroke-linejoin: round; stroke-miterlimit: 4; fill: none; fill-rule: nonzero; opacity: 1;"  transform=" translate(-12, -12)" d="M 5 21 L 5 5 C 5 3.89543 5.89543 3 7 3 L 17 3 C 18.1046 3 19 3.89543 19 5 L 19 21 L 13.0815 17.1953 C 12.4227 16.7717 11.5773 16.7717 10.9185 17.1953 L 5 21 Z" stroke-linecap="round" />
</g>
<g transform="matrix(2.9575936389 0 0 -1.7973567044 305.7009616057 590.6882821388)" id="KXINFlV3DzVp8iVsvlFzK"  >
<path style="stroke: none; stroke-width: 1; stroke-dasharray: none; stroke-linecap: butt; stroke-dashoffset: 0; stroke-linejoin: miter; stroke-miterlimit: 4; fill: rgb(0,0,0); fill-rule: nonzero; opacity: 1;"  transform=" translate(-40, -40)" d="M 0 0 L 80 80 L 0 80 L 0 0 z" stroke-linecap="round" />
</g>
<g transform="matrix(1.1733167189 0 0 1.185785547 403.8680309725 336.0637096418)" id="ocAVYZuAp25FMmn2Fm5r4"  >
<path style="stroke: rgb(155,24,200); stroke-width: 0; stroke-dasharray: none; stroke-linecap: butt; stroke-dashoffset: 0; stroke-linejoin: miter; stroke-miterlimit: 4; fill: rgb(0,0,0); fill-rule: nonzero; opacity: 1;"  transform=" translate(0, 0)" d="M -182.48009 -182.48009 L 182.48009 -182.48009 L 182.48009 182.48009 L -182.48009 182.48009 z" stroke-linecap="round" />
</g>
<g transform="matrix(-2.9575936389 0 0 -1.7973567044 528.6702448822 613.4300341297)" id="oZBWMbtODvUY-OYrM243f"  >
<path style="stroke: none; stroke-width: 1; stroke-dasharray: none; stroke-linecap: butt; stroke-dashoffset: 0; stroke-linejoin: miter; stroke-miterlimit: 4; fill: rgb(0,0,0); fill-rule: nonzero; opacity: 1;"  transform=" translate(-40, -40)" d="M 0 0 L 80 80 L 0 80 L 0 0 z" stroke-linecap="round" />
</g>
</svg>